<?xml version="1.0" encoding="UTF-8"?>
<svg xmlns="http://www.w3.org/2000/svg" viewBox="0 0 980 620" role="img" aria-labelledby="title">
  <title id="title">Anatomy of the white baggage tag as an information package</title>
  <rect width="980" height="620" fill="#F7F6F2"/>
  <text x="40" y="36" font-family="Arial, Helvetica, sans-serif" font-size="18" font-weight="700" letter-spacing="2" fill="#111111">ANATOMY · โครงสร้างป้าย</text>
  <text x="40" y="58" font-family="Arial, Helvetica, sans-serif" font-size="12" fill="#111111">Every zone is a domain. Empty zone = broken package.</text>
  <!-- tag -->
  <rect x="40" y="80" width="520" height="500" fill="#FFFEFA" stroke="#111111" stroke-width="2"/>
  <circle cx="72" cy="112" r="14" fill="none" stroke="#111111" stroke-width="2"/>
  <circle cx="72" cy="112" r="5" fill="#F7F6F2"/>
  <line x1="100" y1="92" x2="100" y2="568" stroke="#111111" stroke-width="1" stroke-dasharray="3 4"/>
  <rect x="58.00" y="70.00" width="12.00" height="1.10" fill="#111111"/>
    <rect x="58.00" y="71.65" width="12.00" height="0.55" fill="#111111"/>
    <rect x="58.00" y="73.30" width="12.00" height="1.65" fill="#111111"/>
    <rect x="58.00" y="76.05" width="12.00" height="1.10" fill="#111111"/>
    <rect x="58.00" y="78.25" width="12.00" height="1.10" fill="#111111"/>
    <rect x="58.00" y="80.45" width="12.00" height="1.10" fill="#111111"/>
    <rect x="58.00" y="82.10" width="12.00" height="0.55" fill="#111111"/>
    <rect x="58.00" y="83.75" width="12.00" height="1.65" fill="#111111"/>
    <rect x="58.00" y="86.50" width="12.00" height="1.10" fill="#111111"/>
    <rect x="58.00" y="88.15" width="12.00" height="0.55" fill="#111111"/>
    <rect x="58.00" y="89.25" width="12.00" height="1.10" fill="#111111"/>
    <rect x="58.00" y="91.45" width="12.00" height="1.65" fill="#111111"/>
    <rect x="58.00" y="94.20" width="12.00" height="0.55" fill="#111111"/>
    <rect x="58.00" y="96.40" width="12.00" height="0.55" fill="#111111"/>
    <rect x="58.00" y="97.50" width="12.00" height="1.10" fill="#111111"/>
    <rect x="58.00" y="100.25" width="12.00" height="1.65" fill="#111111"/>
    <rect x="58.00" y="103.55" width="12.00" height="0.55" fill="#111111"/>
    <rect x="58.00" y="104.65" width="12.00" height="1.10" fill="#111111"/>
    <rect x="58.00" y="106.30" width="12.00" height="1.10" fill="#111111"/>
    <rect x="58.00" y="109.60" width="12.00" height="0.55" fill="#111111"/>
    <rect x="58.00" y="110.70" width="12.00" height="0.55" fill="#111111"/>
    <rect x="58.00" y="112.35" width="12.00" height="1.10" fill="#111111"/>
    <rect x="58.00" y="115.10" width="12.00" height="1.65" fill="#111111"/>
    <rect x="58.00" y="117.30" width="12.00" height="0.55" fill="#111111"/>
    <rect x="58.00" y="118.40" width="12.00" height="1.10" fill="#111111"/>
  <text x="118" y="210" font-family="Arial Narrow, Arial, Helvetica, sans-serif" font-size="92" font-weight="800" letter-spacing="-3" fill="#111111">BKK</text>
  <text x="122" y="236" font-family="Arial, Helvetica, sans-serif" font-size="11" letter-spacing="3" fill="#111111">BANGKOK</text>
  <text x="122" y="268" font-family="ui-monospace, Courier New, monospace" font-size="13" fill="#111111">TG 676 · 08SEP26 · NRT–BKK</text>
  <text x="122" y="292" font-family="Arial, Helvetica, sans-serif" font-size="12" font-weight="700" letter-spacing="1.5" fill="#111111">ARKARA/NON</text>
  <rect x="268.00" y="92.00" width="1.40" height="48.00" fill="#111111"/>
    <rect x="270.10" y="92.00" width="0.70" height="48.00" fill="#111111"/>
    <rect x="272.20" y="92.00" width="2.10" height="48.00" fill="#111111"/>
    <rect x="275.70" y="92.00" width="1.40" height="48.00" fill="#111111"/>
    <rect x="278.50" y="92.00" width="1.40" height="48.00" fill="#111111"/>
    <rect x="281.30" y="92.00" width="1.40" height="48.00" fill="#111111"/>
    <rect x="283.40" y="92.00" width="0.70" height="48.00" fill="#111111"/>
    <rect x="285.50" y="92.00" width="2.10" height="48.00" fill="#111111"/>
    <rect x="289.00" y="92.00" width="1.40" height="48.00" fill="#111111"/>
    <rect x="291.10" y="92.00" width="0.70" height="48.00" fill="#111111"/>
    <rect x="292.50" y="92.00" width="1.40" height="48.00" fill="#111111"/>
    <rect x="295.30" y="92.00" width="2.10" height="48.00" fill="#111111"/>
    <rect x="298.80" y="92.00" width="0.70" height="48.00" fill="#111111"/>
    <rect x="301.60" y="92.00" width="0.70" height="48.00" fill="#111111"/>
    <rect x="303.00" y="92.00" width="1.40" height="48.00" fill="#111111"/>
    <rect x="306.50" y="92.00" width="2.10" height="48.00" fill="#111111"/>
    <rect x="310.70" y="92.00" width="0.70" height="48.00" fill="#111111"/>
    <rect x="312.10" y="92.00" width="1.40" height="48.00" fill="#111111"/>
    <rect x="314.20" y="92.00" width="1.40" height="48.00" fill="#111111"/>
    <rect x="318.40" y="92.00" width="0.70" height="48.00" fill="#111111"/>
    <rect x="319.80" y="92.00" width="0.70" height="48.00" fill="#111111"/>
    <rect x="321.90" y="92.00" width="1.40" height="48.00" fill="#111111"/>
    <rect x="325.40" y="92.00" width="2.10" height="48.00" fill="#111111"/>
    <rect x="328.20" y="92.00" width="0.70" height="48.00" fill="#111111"/>
    <rect x="329.60" y="92.00" width="1.40" height="48.00" fill="#111111"/>
  <text x="268" y="158" font-family="ui-monospace, Courier New, monospace" font-size="13" letter-spacing="1" fill="#111111">0217123456</text>
  <g fill="none" stroke="#111111" stroke-width="1.25">
    <rect x="118" y="430" width="130" height="70"/>
    <rect x="258" y="430" width="130" height="70"/>
    <rect x="398" y="430" width="130" height="70"/>
  </g>
  <text x="128" y="458" font-family="Arial, Helvetica, sans-serif" font-size="10" font-weight="700" fill="#111111">CLAIM</text>
  <text x="128" y="478" font-family="ui-monospace, Courier New, monospace" font-size="11" fill="#111111">0217123456</text>
  <text x="268" y="458" font-family="Arial, Helvetica, sans-serif" font-size="10" font-weight="700" fill="#111111">STUB</text>
  <text x="408" y="458" font-family="Arial, Helvetica, sans-serif" font-size="10" font-weight="700" fill="#111111">STUB</text>
  <text x="118" y="548" font-family="Arial, Helvetica, sans-serif" font-size="10" letter-spacing="1" fill="#111111">FACE STOCK 50.8–54 mm  ·  LOOP ADHESIVE-TO-ADHESIVE</text>

  <!-- callouts -->
  <g font-family="Arial, Helvetica, sans-serif" fill="#111111">
    <line x1="560" y1="112" x2="620" y2="112" stroke="#111111" stroke-width="1"/>
    <text x="628" y="108" font-size="13" font-weight="700">1 LOOP / PUNCH</text>
    <text x="628" y="126" font-size="11">Attachment domain. Distributes force across the strip.</text>

    <line x1="560" y1="160" x2="620" y2="168" stroke="#111111" stroke-width="1"/>
    <text x="628" y="164" font-size="13" font-weight="700">2 ORTHOGONAL BARCODE</text>
    <text x="628" y="182" font-size="11">Machine domain, second axis. Conveyors are 3D.</text>

    <line x1="400" y1="190" x2="620" y2="230" stroke="#111111" stroke-width="1"/>
    <text x="628" y="226" font-size="13" font-weight="700">3 DESTINATION (PRIMARY)</text>
    <text x="628" y="244" font-size="11">IATA three-letter domain. Human stress-scan first.</text>

    <line x1="400" y1="268" x2="620" y2="286" stroke="#111111" stroke-width="1"/>
    <text x="628" y="282" font-size="13" font-weight="700">4 CARRIER / FLIGHT / DATE</text>
    <text x="628" y="300" font-size="11">Context domain. Sort without a database.</text>

    <line x1="250" y1="292" x2="620" y2="336" stroke="#111111" stroke-width="1"/>
    <text x="628" y="332" font-size="13" font-weight="700">5 PASSENGER NAME (FALLBACK)</text>
    <text x="628" y="350" font-size="11">Human backup when LPN and systems fail.</text>

    <line x1="500" y1="120" x2="620" y2="392" stroke="#111111" stroke-width="1"/>
    <text x="628" y="388" font-size="13" font-weight="700">6 LPN + CODE 128 (SECONDARY)</text>
    <text x="628" y="406" font-size="11">10-digit machine key: lead + issuer + serial.</text>

    <line x1="250" y1="465" x2="620" y2="458" stroke="#111111" stroke-width="1"/>
    <text x="628" y="454" font-size="13" font-weight="700">7 STUBS / CLAIM</text>
    <text x="628" y="472" font-size="11">Detachable backup. Same identity, smaller size.</text>

    <line x1="300" y1="548" x2="620" y2="520" stroke="#111111" stroke-width="1"/>
    <text x="628" y="516" font-size="13" font-weight="700">8 MATERIAL / WIDTH</text>
    <text x="628" y="534" font-size="11">Durability is information. Face 50.8–54 mm (Reso 740).</text>
  </g>
</svg>
